<svg width="55" height="30" viewBox="0 0 55 30" fill="none" xmlns="http://www.w3.org/2000/svg">
<path d="M35.2659 5.34863L38.8532 11.656H34.8323L32.1122 5.34863H35.2659ZM30.22 5.34863L32.9401 11.656H22.0205L24.7405 5.34863H30.22ZM19.6947 5.34863H22.8483L20.1283 11.656H16.1468L19.6947 5.34863ZM16.1468 12.9174H20.0889L24.9376 22.8515C25.0165 22.9698 24.8588 23.088 24.7405 22.9698L16.1468 12.9174ZM21.9811 12.9174H32.9795L27.5788 25.4927C27.5394 25.5715 27.4212 25.5715 27.3817 25.4927L21.9811 12.9174ZM30.0229 22.8515L34.8717 12.9174H38.8532L30.22 22.9698C30.1412 23.088 29.9441 22.9698 30.0229 22.8515Z" fill="#1266F1"/>
</svg>
