<svg width="27" height="26" viewBox="0 0 27 26" fill="none" xmlns="http://www.w3.org/2000/svg">
<path d="M24.1093 11.5784C24.1093 17.3505 19.3905 22.0271 13.6606 22.0271C7.88846 22.0271 3.21179 17.3505 3.21179 11.5784C3.21179 5.84838 7.88846 1.12958 13.6606 1.12958C19.3905 1.12958 24.1093 5.84838 24.1093 11.5784ZM12.4387 17.1398L20.191 9.38749C20.4438 9.13469 20.4438 8.67124 20.191 8.41845L19.222 7.49154C18.9692 7.19661 18.5479 7.19661 18.2951 7.49154L11.9753 13.8114L8.98389 10.8621C8.7311 10.5672 8.30978 10.5672 8.05698 10.8621L7.08794 11.789C6.83515 12.0418 6.83515 12.5053 7.08794 12.7581L11.4697 17.1398C11.7225 17.3926 12.1859 17.3926 12.4387 17.1398Z" fill="#00B74A"/>
</svg>
