<svg width="492" height="37" viewBox="0 0 492 37" fill="none" xmlns="http://www.w3.org/2000/svg">
<path d="M-1 4C-1 1.23858 1.23858 -1 4 -1H9V1H4C2.34315 1 1 2.34315 1 4H-1ZM9 37.13H4C1.23858 37.13 -1 34.8914 -1 32.13H1C1 33.7869 2.34315 35.13 4 35.13H9V37.13ZM4 37.13C1.23858 37.13 -1 34.8914 -1 32.13V4C-1 1.23858 1.23858 -1 4 -1V1C2.34315 1 1 2.34315 1 4V32.13C1 33.7869 2.34315 35.13 4 35.13V37.13ZM9 0V36.13V0Z" fill="#BDBDBD" mask="url(#path-1-inside-1_1_57)"/>
<mask id="path-3-inside-2_1_57" fill="white">
<path d="M9 0H97.8V36.13H9V0Z"/>
</mask>
<path d="M97.8 35.13H9V37.13H97.8V35.13Z" fill="#BDBDBD" mask="url(#path-3-inside-2_1_57)"/>
<path d="M97.8 -1H488C490.761 -1 493 1.23858 493 4H491C491 2.34315 489.657 1 488 1H97.8V-1ZM493 32.13C493 34.8914 490.761 37.13 488 37.13H97.8V35.13H488C489.657 35.13 491 33.7869 491 32.13H493ZM97.8 36.13V0V36.13ZM488 -1C490.761 -1 493 1.23858 493 4V32.13C493 34.8914 490.761 37.13 488 37.13V35.13C489.657 35.13 491 33.7869 491 32.13V4C491 2.34315 489.657 1 488 1V-1Z" fill="#BDBDBD" mask="url(#path-5-inside-3_1_57)"/>
</svg>
