<svg width="234" height="37" viewBox="0 0 234 37" fill="none" xmlns="http://www.w3.org/2000/svg">
<path d="M-1 4C-1 1.23858 1.23858 -1 4 -1H9V1H4C2.34315 1 1 2.34315 1 4H-1ZM9 37.13H4C1.23858 37.13 -1 34.8914 -1 32.13H1C1 33.7869 2.34315 35.13 4 35.13H9V37.13ZM4 37.13C1.23858 37.13 -1 34.8914 -1 32.13V4C-1 1.23858 1.23858 -1 4 -1V1C2.34315 1 1 2.34315 1 4V32.13C1 33.7869 2.34315 35.13 4 35.13V37.13ZM9 0V36.13V0Z" fill="#BDBDBD" mask="url(#path-1-inside-1_1_42)"/>
<mask id="path-3-inside-2_1_42" fill="white">
<path d="M9 0H77.8V36.13H9V0Z"/>
</mask>
<path d="M9 1H77.8V-1H9V1ZM77.8 35.13H9V37.13H77.8V35.13Z" fill="#BDBDBD" mask="url(#path-3-inside-2_1_42)"/>
<path d="M77.8 -1H230C232.761 -1 235 1.23858 235 4H233C233 2.34315 231.657 1 230 1H77.8V-1ZM235 32.13C235 34.8914 232.761 37.13 230 37.13H77.8V35.13H230C231.657 35.13 233 33.7869 233 32.13H235ZM77.8 36.13V0V36.13ZM230 -1C232.761 -1 235 1.23858 235 4V32.13C235 34.8914 232.761 37.13 230 37.13V35.13C231.657 35.13 233 33.7869 233 32.13V4C233 2.34315 231.657 1 230 1V-1Z" fill="#BDBDBD" mask="url(#path-5-inside-3_1_42)"/>
</svg>
